<svg width="97" height="79" viewBox="0 0 97 79" fill="none" xmlns="http://www.w3.org/2000/svg">
<path d="M48.6847 31.1493V76M48.6847 31.1493L65.6779 48.0263M48.6847 31.1493L31.6914 48.0263M79.839 59.2776C88.4432 59.2776 94 52.3524 94 43.807C93.9997 40.4239 92.8828 37.1341 90.8203 34.4415C88.7578 31.7489 85.8634 29.802 82.5805 28.899C82.0754 22.5896 79.4425 16.6338 75.1074 11.9944C70.7723 7.35508 64.9884 4.3034 58.6909 3.33277C52.3933 2.36214 45.9502 3.52929 40.4032 6.64552C34.8562 9.76175 30.5296 14.6449 28.1228 20.5055C23.0556 19.1105 17.6379 19.7718 13.0616 22.3439C8.48524 24.916 5.12517 29.1883 3.72052 34.2209C2.31587 39.2535 2.98171 44.6341 5.57156 49.1791C8.16141 53.7241 12.4631 57.0612 17.5304 58.4563" stroke="black" stroke-width="6" stroke-linecap="round" stroke-linejoin="round"/>
</svg>
